<?xml version="1.0" encoding="utf-8"?>
<!-- Generator: Adobe Illustrator 21.0.0, SVG Export Plug-In . SVG Version: 6.00 Build 0)  -->
<svg version="1.1" id="Warstwa_1" xmlns="http://www.w3.org/2000/svg" xmlns:xlink="http://www.w3.org/1999/xlink" x="0px" y="0px"
	 viewBox="0 0 50 30" style="enable-background:new 0 0 50 30;" xml:space="preserve">
<style type="text/css">
	.st0{fill:#497FCE;}
</style>
<g>
	<g>
		<path class="st0" d="M15,25.7c0.4,0,0.7-0.2,1-0.5l7.3-8.2c0.3-0.3,0.4-0.7,0.4-1.1H15V25.7z"/>
		<path class="st0" d="M23.6,16c0-0.4-0.1-0.8-0.4-1.1L16,6.7c-0.3-0.3-0.6-0.5-1-0.5V16H23.6z"/>
	</g>
	<g>
		<path class="st0" d="M40,6.3c-0.4,0-0.7,0.2-1,0.5l-7.3,8.2c-0.3,0.3-0.4,0.7-0.4,1.1l8.6,0L40,6.3z"/>
		<path class="st0" d="M31.4,16c0,0.4,0.1,0.8,0.4,1.1l7.3,8.2c0.3,0.3,0.6,0.5,1,0.5l0-9.7L31.4,16z"/>
	</g>
</g>
</svg>
